# xmcd
#
# Track frame offsets:
#	150
#	5749
#	22263
#	36077
#	50043
#	67116
#	82368
#	101501
#	117751
#	133205
#	143677
#	156662
#	175901
#
# Disc length: 2549 seconds
#
# Revision: 1
# Processed by: cddbd v1.5.2PL0 Copyright (c) Steve Scherf et al.
# Submitted via: audiograbber 1.83.01
#
DISCID=c509f30d
DTITLE=A Pony Named Olga - The Land Of Milk And Pony
DYEAR=1900
DGENRE=Modern Rockabilly
TTITLE0=The Land of Milk And Pony
TTITLE1=Move Your Arse
TTITLE2=Judith G.
TTITLE3=The Next One
TTITLE4=Ponykaravane
TTITLE5=Till You Die
TTITLE6=Turn Off The Machine
TTITLE7=We Had Fun
TTITLE8=Der Goldene Planet
TTITLE9=It's Only Perfect
TTITLE10=Oh Yeah
TTITLE11=Take Your Pony
TTITLE12=Did You Really Think
EXTD=
EXTT0=
EXTT1=
EXTT2=
EXTT3=
EXTT4=
EXTT5=
EXTT6=
EXTT7=
EXTT8=
EXTT9=
EXTT10=
EXTT11=
EXTT12=
PLAYORDER=
